<svg width="18" height="16" viewBox="0 0 18 16" fill="none" xmlns="http://www.w3.org/2000/svg">
<g id="fi-br-star" clip-path="url(#clip0_36_105)">
<path id="Vector" d="M5.58387 15.6249C5.06558 15.6226 4.56135 15.4592 4.14351 15.1582C3.7165 14.8633 3.39787 14.441 3.23501 13.954C3.07216 13.4671 3.07378 12.9415 3.23963 12.4555L4.03417 10.0429L1.94256 8.54153C1.52318 8.24073 1.21146 7.81742 1.052 7.33216C0.892536 6.8469 0.893503 6.32457 1.05476 5.83988C1.21602 5.3552 1.52931 4.933 1.9498 4.6337C2.37029 4.33439 2.87644 4.17333 3.39582 4.17353H5.95601L6.73357 1.79353C6.89315 1.30616 7.20619 0.88108 7.62759 0.579519C8.04899 0.277959 8.55701 0.115479 9.07849 0.115479C9.59997 0.115479 10.108 0.277959 10.5294 0.579519C10.9508 0.88108 11.2638 1.30616 11.4234 1.79353L12.2037 4.17353H14.7639C15.2832 4.17347 15.7892 4.33464 16.2096 4.63399C16.63 4.93334 16.9432 5.35554 17.1044 5.8402C17.2655 6.32485 17.2664 6.84713 17.107 7.33232C16.9475 7.81751 16.6358 8.24077 16.2165 8.54153L14.1255 10.0429L14.9201 12.4555C15.0803 12.9422 15.0791 13.4662 14.9167 13.9522C14.7543 14.4382 14.4391 14.8611 14.0164 15.1601C13.5938 15.4591 13.0854 15.6187 12.5644 15.6161C12.0434 15.6135 11.5367 15.4487 11.1171 15.1455L9.07985 13.6749L7.04256 15.1462C6.62102 15.4549 6.10974 15.6226 5.58387 15.6249ZM3.39582 6.17353C3.30619 6.17352 3.21884 6.20133 3.14627 6.25298C3.07369 6.30462 3.01961 6.37747 2.99174 6.46111C2.96387 6.54474 2.96364 6.63488 2.99109 6.71865C3.01853 6.80242 3.07225 6.87553 3.14456 6.92753L5.83106 8.85487C6.00405 8.97904 6.13274 9.15361 6.19882 9.35373C6.2649 9.55386 6.26501 9.76934 6.19913 9.96953L5.18048 13.0695C5.15222 13.1536 5.15193 13.2444 5.17966 13.3286C5.20739 13.4129 5.2617 13.4863 5.33474 13.5383C5.40778 13.5902 5.49576 13.618 5.58596 13.6176C5.67615 13.6173 5.76389 13.5888 5.83649 13.5362L8.47749 11.6289C8.65245 11.5025 8.86398 11.4343 9.0812 11.4343C9.29842 11.4343 9.50996 11.5025 9.68492 11.6289L12.3259 13.5355C12.3984 13.5886 12.4863 13.6175 12.5767 13.6181C12.6671 13.6187 12.7554 13.5909 12.8286 13.5388C12.9018 13.4868 12.9562 13.4131 12.9838 13.3285C13.0113 13.244 13.0107 13.153 12.9819 13.0689L11.9633 9.96887C11.8974 9.76868 11.8975 9.55319 11.9636 9.35307C12.0297 9.15294 12.1584 8.97837 12.3314 8.8542L15.0172 6.92687C15.0894 6.8749 15.1431 6.80185 15.1706 6.71814C15.1981 6.63444 15.1979 6.54436 15.1701 6.46076C15.1423 6.37715 15.0883 6.3043 15.0159 6.2526C14.9434 6.2009 14.8562 6.173 14.7666 6.17287H11.4567C11.2409 6.17281 11.0308 6.10552 10.8565 5.98067C10.6822 5.85583 10.5528 5.67988 10.4869 5.4782L9.4873 2.4042C9.45977 2.32007 9.40574 2.24668 9.33301 2.19462C9.26027 2.14256 9.17258 2.11451 9.08256 2.11451C8.99255 2.11451 8.90485 2.14256 8.83212 2.19462C8.75938 2.24668 8.70535 2.32007 8.67782 2.4042L7.67072 5.47887C7.60496 5.68023 7.47586 5.85594 7.30199 5.98075C7.12811 6.10556 6.91841 6.17306 6.70301 6.17353H3.39582Z" fill="#B0B4B7"/>
</g>
<defs>
<clipPath id="clip0_36_105">
<rect width="16.2983" height="16" fill="white" transform="translate(0.930664)"/>
</clipPath>
</defs>
</svg>
