<svg width="24" height="24" viewBox="0 0 24 24" fill="none" xmlns="http://www.w3.org/2000/svg">
<g id="fi-sr-star" clip-path="url(#clip0_36_232)">
<path id="Vector" d="M1.3267 12.4003L4.8867 15.0003L3.53471 19.1873C3.31622 19.8367 3.31345 20.5393 3.52681 21.1904C3.74018 21.8415 4.15825 22.4062 4.7187 22.8003C5.26956 23.2071 5.9371 23.425 6.62186 23.4216C7.30662 23.4182 7.97195 23.1936 8.51871 22.7813L11.9997 20.2193L15.4817 22.7783C16.0316 23.1828 16.6955 23.4025 17.3781 23.4058C18.0607 23.4091 18.7267 23.1959 19.2805 22.7968C19.8342 22.3978 20.2472 21.8334 20.46 21.1848C20.6728 20.5362 20.6744 19.8369 20.4647 19.1873L19.1127 15.0003L22.6727 12.4003C23.2218 11.9988 23.6301 11.4341 23.8391 10.7867C24.048 10.1394 24.0471 9.44251 23.8364 8.79571C23.6257 8.14891 23.2159 7.58525 22.6657 7.18523C22.1155 6.7852 21.453 6.56929 20.7727 6.56832H16.3997L15.0727 2.43232C14.864 1.78128 14.454 1.21333 13.9017 0.810386C13.3494 0.407437 12.6834 0.190308 11.9997 0.190308C11.316 0.190308 10.65 0.407437 10.0977 0.810386C9.54544 1.21333 9.13538 1.78128 8.92671 2.43232L7.59971 6.56832H3.23071C2.55045 6.56929 1.8879 6.7852 1.33768 7.18523C0.787473 7.58525 0.377745 8.14891 0.167026 8.79571C-0.0436933 9.44251 -0.044626 10.1394 0.164361 10.7867C0.373348 11.4341 0.781566 11.9988 1.3307 12.4003H1.3267Z" fill="#FFE605"/>
</g>
<defs>
<clipPath id="clip0_36_232">
<rect width="24" height="24" fill="white"/>
</clipPath>
</defs>
</svg>
