<svg width="35" height="73" viewBox="0 0 35 73" fill="none" xmlns="http://www.w3.org/2000/svg">
<g id="Search Icon">
<path id="Vector" d="M34.5993 23.3725L31.3855 19.7548C32.8715 17.6146 33.6779 14.9717 33.6749 12.251C33.6749 9.828 33.0393 7.45939 31.8484 5.44472C30.6576 3.43005 28.965 1.85981 26.9847 0.932558C25.0045 0.00530822 22.8254 -0.237303 20.7232 0.235405C18.6209 0.708113 16.6899 1.87491 15.1742 3.58824C13.6586 5.30158 12.6264 7.4845 12.2082 9.86096C11.7901 12.2374 12.0047 14.7007 12.825 16.9393C13.6452 19.1779 15.0343 21.0912 16.8165 22.4374C18.5987 23.7835 20.694 24.502 22.8374 24.502C25.2442 24.5054 27.5821 23.5939 29.4754 21.914L32.6756 25.547C32.8016 25.6906 32.9514 25.8045 33.1165 25.8822C33.2816 25.96 33.4586 26 33.6375 26C33.8163 26 33.9934 25.96 34.1584 25.8822C34.3235 25.8045 34.4734 25.6906 34.5993 25.547C34.7263 25.4047 34.827 25.2353 34.8958 25.0487C34.9646 24.8621 35 24.6619 35 24.4597C35 24.2576 34.9646 24.0574 34.8958 23.8708C34.827 23.6842 34.7263 23.5148 34.5993 23.3725ZM14.7094 12.251C14.7094 10.4338 15.1861 8.6573 16.0792 7.14629C16.9723 5.63529 18.2417 4.45761 19.727 3.76217C21.2122 3.06673 22.8465 2.88478 24.4231 3.23931C25.9998 3.59384 27.4481 4.46894 28.5849 5.75394C29.7216 7.03894 30.4957 8.67613 30.8093 10.4585C31.123 12.2408 30.962 14.0883 30.3468 15.7672C29.7316 17.4461 28.6898 18.8812 27.3532 19.8908C26.0165 20.9004 24.445 21.4393 22.8374 21.4393C20.6817 21.4393 18.6143 20.4712 17.09 18.7481C15.5657 17.025 14.7094 14.6879 14.7094 12.251Z" fill="#272727"/>
</g>
</svg>
